<svg xmlns="http://www.w3.org/2000/svg" width="351.911" height="329.291" viewBox="0 0 351.911 329.291">
  <g id="Popup_06" transform="translate(-24.788 -26.768)">
    <path id="Pfad_2" data-name="Pfad 2" d="M37.741,31.763H389.652V361.054H37.741Z" transform="translate(-12.953 -4.995)" fill="#bdbdbd"/>
    <g id="Gruppe_35" data-name="Gruppe 35" transform="translate(73.318 90.335)">
      <path id="Pfad_66" data-name="Pfad 66" d="M1678.27-1886.08a20,20,0,0,0-19.979,19.978,20,20,0,0,0,19.979,19.979,20,20,0,0,0,19.979-19.979,20,20,0,0,0-19.979-19.978Z" transform="translate(-1496.457 1918.994)" fill="#00b4ae"/>
      <g id="Gruppe_21" data-name="Gruppe 21" transform="translate(109.892 11.978)">
        <path id="Pfad_50" data-name="Pfad 50" d="M1594.27-1895.06a4,4,0,0,1-4-4c0-1.943-4.358-6.028-20.7-9.017a4,4,0,0,1-3.212-4.649,3.993,3.993,0,0,1,1.659-2.569,3.993,3.993,0,0,1,2.991-.641c18.337,3.354,27.25,8.874,27.25,16.877a4,4,0,0,1-3.988,4Z" transform="translate(-1566.296 1915.998)"/>
      </g>
      <g id="Gruppe_22" data-name="Gruppe 22" transform="translate(133.867 24.925)">
        <path id="Pfad_51" data-name="Pfad 51" d="M1618.29-1786.19a4,4,0,0,1-4-4v-95.9a4,4,0,0,1,4-4,4,4,0,0,1,4,4v95.9A4,4,0,0,1,1618.29-1786.19Z" transform="translate(-1614.297 1890.075)"/>
      </g>
      <g id="Gruppe_24" data-name="Gruppe 24" transform="translate(153.845 24.925)">
        <path id="Pfad_53" data-name="Pfad 53" d="M1682.27-1834.14a28,28,0,0,1-27.97-27.97,28,28,0,0,1,27.97-27.969,28,28,0,0,1,27.97,27.969,28,28,0,0,1-27.97,27.97Zm0-47.948a20,20,0,0,0-19.979,19.978,20,20,0,0,0,19.979,19.979,20,20,0,0,0,19.979-19.979,20,20,0,0,0-19.979-19.97Z" transform="translate(-1654.297 1890.075)"/>
      </g>
      <g id="Gruppe_25" data-name="Gruppe 25" transform="translate(169.828 71.475)">
        <path id="Pfad_54" data-name="Pfad 54" d="M1706.28-1767.51H1690.3a4,4,0,0,1-4-4v-21.377a4,4,0,0,1,4-4,4,4,0,0,1,4,4v17.381h7.992v-17.381a4,4,0,0,1,4-4,4,4,0,0,1,4,4v21.377a4,4,0,0,1-1.175,2.832A4,4,0,0,1,1706.28-1767.51Z" transform="translate(-1686.297 1796.875)"/>
      </g>
      <g id="Gruppe_28" data-name="Gruppe 28" transform="translate(117.884 92.852)">
        <path id="Pfad_57" data-name="Pfad 57" d="M1618.26-1642.2a36,36,0,0,1-35.961-35.961v-32.8a4,4,0,0,1,4-4,4,4,0,0,1,4,4v32.8a28,28,0,0,0,27.97,27.97,24,24,0,0,0,23.974-23.974v-75.919a4,4,0,0,1,4-4,4,4,0,0,1,4,4v75.919a32,32,0,0,1-31.983,31.965Z" transform="translate(-1582.297 1754.075)"/>
      </g>
      <g id="Gruppe_29" data-name="Gruppe 29" transform="translate(93.91 135.806)">
        <path id="Pfad_58" data-name="Pfad 58" d="M1610.21-1567.18a76,76,0,0,1-75.91-75.92v-20.978a4,4,0,0,1,4-4,4,4,0,0,1,4,4v20.978a68,68,0,0,0,67.927,67.927,60,60,0,0,0,59.936-59.936v-27.97a4,4,0,0,1,4-4,4,4,0,0,1,4,4v27.97a68,68,0,0,1-67.953,67.929Z" transform="translate(-1534.297 1668.075)"/>
      </g>
      <g id="Gruppe_30" data-name="Gruppe 30" transform="translate(177.801 39.101)">
        <path id="Pfad_59" data-name="Pfad 59" d="M1708.27-1859.89l2,19.979a4.015,4.015,0,0,1-.887,2.947,4.015,4.015,0,0,1-2.713,1.453,4.015,4.015,0,0,1-2.944-.889,4.014,4.014,0,0,1-1.451-2.711,4.231,4.231,0,0,1,0-.8l2-19.979a2.007,2.007,0,0,1,.727-1.356,2.008,2.008,0,0,1,1.473-.444,2.009,2.009,0,0,1,1.8,1.8Z" transform="translate(-1702.259 1861.694)"/>
      </g>
      <g id="Gruppe_31" data-name="Gruppe 31" transform="translate(166.967 42.757)">
        <path id="Pfad_60" data-name="Pfad 60" d="M1685.06-1853.97a2.989,2.989,0,0,0-2.273-.3,2.989,2.989,0,0,0-1.817,1.4,3,3,0,0,0,1.093,4.094,3,3,0,0,0,2.278.3,3,3,0,0,0,1.822-1.4,2.992,2.992,0,0,0,.3-2.276,2.992,2.992,0,0,0-1.4-1.818Z" transform="translate(-1680.569 1854.374)"/>
      </g>
      <g id="Gruppe_32" data-name="Gruppe 32" transform="translate(190.67 56.442)">
        <path id="Pfad_61" data-name="Pfad 61" d="M1732.52-1826.57a2.987,2.987,0,0,0-2.272-.3,2.987,2.987,0,0,0-1.818,1.4,3,3,0,0,0,1.093,4.1,2.993,2.993,0,0,0,4.089-1.1,2.989,2.989,0,0,0,.3-2.274A2.989,2.989,0,0,0,1732.52-1826.57Z" transform="translate(-1728.026 1826.974)"/>
      </g>
      <g id="Gruppe_33" data-name="Gruppe 33" transform="translate(166.965 56.443)">
        <path id="Pfad_62" data-name="Pfad 62" d="M1682.06-1826.56a2.993,2.993,0,0,0-1.1,4.089,3,3,0,0,0,4.094,1.1,3,3,0,0,0,1.1-4.093,2.992,2.992,0,0,0-1.82-1.4,2.992,2.992,0,0,0-2.275.3Z" transform="translate(-1680.565 1826.971)"/>
      </g>
      <g id="Gruppe_34" data-name="Gruppe 34" transform="translate(190.67 42.759)">
        <path id="Pfad_63" data-name="Pfad 63" d="M1729.52-1853.97a2.992,2.992,0,0,0-1.395,1.819,2.99,2.99,0,0,0,.3,2.272,3,3,0,0,0,4.094,1.1,3,3,0,0,0,1.088-4.1,2.987,2.987,0,0,0-1.818-1.394,2.988,2.988,0,0,0-2.271.3Z" transform="translate(-1728.026 1854.369)"/>
      </g>
      <g id="Gruppe_36" data-name="Gruppe 36" transform="translate(213.781 65.134)">
        <path id="Pfad_56" data-name="Pfad 56" d="M1782.29-1762.27c-.934,0,19.573-1.827,13.354-7l-.055.048c.068-.063,6.681-6.512,6.681-25.011,0-15.753-5.848-25.057-11.987-27.718-6.139,2.661-11.987,11.965-11.987,27.718,0,18.643,6.561,24.905,6.627,24.963C1786.58-1767.82,1783.4-1762.27,1782.29-1762.27Z" transform="translate(-1770.302 1821.952)" fill="#fff"/>
        <path id="Pfad_64" data-name="Pfad 64" d="M1786.28-1774.11a3.977,3.977,0,0,1-2.629-.989c-.958-.838-9.356-8.826-9.356-30.977C1774.3-1824.41,1787.39-1774.11,1786.28-1774.11Z" transform="translate(-1774.297 1833.797)"/>
      </g>
      <g id="Gruppe_27" data-name="Gruppe 27" transform="translate(213.781 56.891)">
        <path id="Pfad_56-2" data-name="Pfad 56" d="M1786.28-1758.15a3.976,3.976,0,0,1-2.629-.988c-.958-.838-9.356-8.826-9.356-30.977,0-18.328,7.393-32.377,18.835-35.8a4.007,4.007,0,0,1,2.286,0c11.442,3.417,18.836,17.467,18.836,35.795,0,22.151-8.4,30.139-9.356,30.977l-5.262-6.014-.055.048c.067-.063,6.681-6.512,6.681-25.011,0-15.753-5.848-25.057-11.987-27.718-6.139,2.661-11.987,11.965-11.987,27.718,0,18.643,6.561,24.905,6.627,24.963a4,4,0,0,1,.376,5.638,3.984,3.984,0,0,1-3.009,1.364Z" transform="translate(-1774.297 1826.075)"/>
        <path id="Pfad_64-2" data-name="Pfad 64" d="M1786.28-1774.11a3.977,3.977,0,0,1-2.629-.989c-.958-.838-9.356-8.826-9.356-30.977C1774.3-1824.41,1787.39-1774.11,1786.28-1774.11Z" transform="translate(-1774.297 1842.04)"/>
      </g>
      <g id="Gruppe_26" data-name="Gruppe 26" transform="translate(221.772 116.826)">
        <path id="Pfad_55" data-name="Pfad 55" d="M1810.28-1678.1H1794.3a4,4,0,0,1-4-4v-19.978a4,4,0,0,1,4-4h15.983a4,4,0,0,1,4,4v19.978A4,4,0,0,1,1810.28-1678.1Zm-11.987-7.991h7.991v-11.987h-7.991Z" transform="translate(-1790.297 1706.075)"/>
      </g>
      <g id="Gruppe_37" data-name="Gruppe 37">
        <path id="Pfad_52" data-name="Pfad 52" d="M1463.6-1826.67v-95.9a.734.734,0,0,0-.645-.709c-10.636-1.522-23.029-3.269-36.824-3.269a240.446,240.446,0,0,0-45.372,4.563c-14.576,2.9-18.465,6.624-18.465,8.367v96.161s29.352-8.341,52.606-9.216S1463.6-1826.67,1463.6-1826.67Z" transform="translate(-1362.294 1926.549)" fill="#fff"/>
      </g>
      <g id="Gruppe_19" data-name="Gruppe 19" transform="translate(6.004 104.839)">
        <path id="Pfad_48" data-name="Pfad 48" d="M1426.22-1690.12c-16.8,0-32.458-1.348-44.1-3.8-16.034-3.372-23.829-8.666-23.829-16.183s7.8-12.809,23.829-16.182c11.64-2.448,27.3-3.8,44.1-3.8s32.458,1.349,44.1,3.8c16.035,3.373,23.829,8.666,23.829,16.182s-7.8,12.811-23.829,16.183C1458.68-1691.47,1443.02-1690.12,1426.22-1690.12Zm0-31.966c-16.262,0-31.339,1.287-42.453,3.625-13.8,2.9-17.483,6.622-17.483,8.362s3.682,5.46,17.483,8.362c11.114,2.338,26.191,3.625,42.453,3.625s31.339-1.287,42.453-3.625c13.8-2.9,17.483-6.622,17.483-8.362s-3.682-5.459-17.483-8.362c-11.113-2.339-26.183-3.619-42.453-3.619Z" transform="translate(-1358.297 1730.075)"/>
      </g>
      <g id="Gruppe_23" data-name="Gruppe 23" transform="translate(6.004 4.947)">
        <path id="Pfad_52-2" data-name="Pfad 52" d="M1466.18-1819.16a4,4,0,0,1-4-4v-95.9a.721.721,0,0,0-.611-.709,243.368,243.368,0,0,0-35.35-2.326c-16.272,0-31.349,1.286-42.456,3.62-13.8,2.9-17.479,6.624-17.479,8.367a4,4,0,0,1-4,4,4,4,0,0,1-4-4c0-7.521,7.794-12.816,23.827-16.186,11.631-2.445,27.293-3.792,44.1-3.792a255.629,255.629,0,0,1,36.545,2.416,8.656,8.656,0,0,1,7.408,8.606v95.9A4,4,0,0,1,1466.18-1819.16Z" transform="translate(-1358.297 1930.075)"/>
      </g>
      <g id="Gruppe_20" data-name="Gruppe 20" transform="translate(6.004 20.93)">
        <path id="Pfad_49" data-name="Pfad 49" d="M1362.29-1790.19a4,4,0,0,1-4-4v-99.892a4,4,0,0,1,4-4,4,4,0,0,1,4,4v99.892A4,4,0,0,1,1362.29-1790.19Z" transform="translate(-1358.297 1898.075)"/>
      </g>
    </g>
    <path id="Pfad_65" data-name="Pfad 65" d="M1682.27-1834.14a28,28,0,0,1-27.97-27.97,28,28,0,0,1,27.97-27.969,28,28,0,0,1,27.97,27.969,28,28,0,0,1-27.97,27.97Zm0-47.948a20,20,0,0,0-19.979,19.978,20,20,0,0,0,19.979,19.979,20,20,0,0,0,19.979-19.979,20,20,0,0,0-19.979-19.97Z" transform="translate(-1427.133 2005.335)"/>
  </g>
</svg>
