<svg xmlns="http://www.w3.org/2000/svg" width="344.688" height="326.237" viewBox="0 0 344.688 326.237">
  <g id="Popup_12" transform="translate(-24.968 -30.348)">
    <path id="Pfad_2" data-name="Pfad 2" d="M37.912,31.763H382.6V358H37.912Z" transform="translate(-12.944 -1.415)" fill="#bdbdbd"/>
    <path id="Pfad_116" data-name="Pfad 116" d="M1118.36,467.359h-68.371V519.1h62.486l5.885-54.1" transform="translate(-962.858 -225.774)" fill="#fff"/>
    <path id="Pfad_117" data-name="Pfad 117" d="M1049.99,467.359h68.371V519.1h-62.486L1049.99,465" transform="translate(-792.106 -225.774)" fill="#fff"/>
    <path id="Pfad_103" data-name="Pfad 103" d="M335.432,249.133c0,11.72-7.5,21.232-16.739,21.232s-16.717-9.512-16.717-21.232,7.48-21.215,16.717-21.215S335.432,237.422,335.432,249.133Z" transform="translate(-113.416 -127.132)" fill="none" stroke="#000" stroke-linecap="round" stroke-linejoin="round" stroke-width="8"/>
    <line id="Linie_11" data-name="Linie 11" x2="20.729" y2="20.866" transform="translate(184.558 146.499)" fill="none" stroke="#000" stroke-linecap="round" stroke-linejoin="round" stroke-width="8"/>
    <line id="Linie_12" data-name="Linie 12" x1="20.729" y2="20.866" transform="translate(205.287 146.499)" fill="none" stroke="#000" stroke-linecap="round" stroke-linejoin="round" stroke-width="8"/>
    <path id="Pfad_104" data-name="Pfad 104" d="M315.77,238.356h-1.564a17.551,17.551,0,0,0-17.5,17.505v25.292" transform="translate(-131.213 -91.856)" fill="none" stroke="#000" stroke-linecap="round" stroke-linejoin="round" stroke-width="8"/>
    <path id="Pfad_105" data-name="Pfad 105" d="M310.528,238.356H312.1a17.554,17.554,0,0,1,17.5,17.5v25.292" transform="translate(-84.514 -91.856)" fill="none" stroke="#000" stroke-linecap="round" stroke-linejoin="round" stroke-width="8"/>
    <line id="Linie_13" data-name="Linie 13" x2="111.517" transform="translate(93.769 299.419)" fill="none" stroke="#000" stroke-linecap="round" stroke-linejoin="round" stroke-width="8"/>
    <line id="Linie_14" data-name="Linie 14" x1="11.693" y2="63.434" transform="translate(172.588 235.985)" fill="none" stroke="#000" stroke-linecap="round" stroke-linejoin="round" stroke-width="8"/>
    <line id="Linie_15" data-name="Linie 15" x1="5.286" y2="55.096" transform="translate(156.972 244.323)" fill="none" stroke="#000" stroke-linecap="round" stroke-linejoin="round" stroke-width="8"/>
    <line id="Linie_16" data-name="Linie 16" x2="37.213" transform="translate(125.045 244.323)" fill="none" stroke="#000" stroke-linecap="round" stroke-linejoin="round" stroke-width="8"/>
    <line id="Linie_17" data-name="Linie 17" x2="48.42" y2="3" transform="translate(126.56 222.665)" fill="none" stroke="#000" stroke-linecap="round" stroke-linejoin="round" stroke-width="8"/>
    <line id="Linie_18" data-name="Linie 18" y2="93.87" transform="translate(197.527 205.549)" fill="none" stroke="#000" stroke-linecap="round" stroke-linejoin="round" stroke-width="8"/>
    <line id="Linie_19" data-name="Linie 19" y2="93.87" transform="translate(212.949 205.549)" fill="none" stroke="#000" stroke-linecap="round" stroke-linejoin="round" stroke-width="8"/>
    <line id="Linie_20" data-name="Linie 20" x1="4.583" y2="27.238" transform="translate(138.625 195.779)" fill="none" stroke="#000" stroke-linecap="round" stroke-linejoin="round" stroke-width="8"/>
    <path id="Pfad_106" data-name="Pfad 106" d="M303.749,326.012H290.982a7.688,7.688,0,0,1-7.756-9.166L293.4,250.535a11.113,11.113,0,0,1,10.568-9.171H316.73a7.611,7.611,0,0,1,7.568,5.562" transform="translate(-177.147 -81.69)" fill="none" stroke="#000" stroke-linecap="round" stroke-linejoin="round" stroke-width="8"/>
    <path id="Pfad_107" data-name="Pfad 107" d="M298.875,256.432a9.327,9.327,0,0,1,9.324,9.329" transform="translate(-123.895 -30.767)" fill="none" stroke="#000" stroke-linecap="round" stroke-linejoin="round" stroke-width="8"/>
    <path id="Pfad_108" data-name="Pfad 108" d="M292.521,242.634s3.228,28.756,35.492,28.756c0,0,9.53-.4,9.53,11.558" transform="translate(-145.369 -77.398)" fill="none" stroke="#000" stroke-linecap="round" stroke-linejoin="round" stroke-width="8"/>
    <path id="Pfad_109" data-name="Pfad 109" d="M288.5,245.836s7.253,26.291,52.419,26.291" transform="translate(-158.961 -66.576)" fill="none" stroke="#000" stroke-linecap="round" stroke-linejoin="round" stroke-width="8"/>
    <line id="Linie_21" data-name="Linie 21" x1="52.899" transform="translate(176.675 205.549)" fill="none" stroke="#000" stroke-linecap="round" stroke-linejoin="round" stroke-width="8"/>
    <path id="Pfad_110" data-name="Pfad 110" d="M319.152,250.345c0,11.777-7.537,21.337-16.822,21.337s-16.8-9.561-16.8-21.337,7.52-21.324,16.8-21.324S319.152,238.573,319.152,250.345Z" transform="translate(-169.012 -123.404)" fill="none" stroke="#000" stroke-linecap="round" stroke-linejoin="round" stroke-width="8"/>
    <path id="Pfad_111" data-name="Pfad 111" d="M351.874,250.345c0,11.777-7.542,21.337-16.826,21.337s-16.8-9.561-16.8-21.337,7.524-21.324,16.8-21.324S351.874,238.573,351.874,250.345Z" transform="translate(-58.44 -123.404)" fill="none" stroke="#000" stroke-linecap="round" stroke-linejoin="round" stroke-width="8"/>
    <line id="Linie_22" data-name="Linie 22" x2="11.693" y2="63.434" transform="translate(226.293 235.985)" fill="none" stroke="#000" stroke-linecap="round" stroke-linejoin="round" stroke-width="8"/>
    <line id="Linie_23" data-name="Linie 23" x2="5.286" y2="55.096" transform="translate(248.316 244.323)" fill="none" stroke="#000" stroke-linecap="round" stroke-linejoin="round" stroke-width="8"/>
    <line id="Linie_24" data-name="Linie 24" x1="37.213" transform="translate(248.316 244.323)" fill="none" stroke="#000" stroke-linecap="round" stroke-linejoin="round" stroke-width="8"/>
    <line id="Linie_25" data-name="Linie 25" x1="48.42" y2="3" transform="translate(235.591 222.665)" fill="none" stroke="#000" stroke-linecap="round" stroke-linejoin="round" stroke-width="8"/>
    <line id="Linie_26" data-name="Linie 26" x2="4.584" y2="27.238" transform="translate(267.363 195.779)" fill="none" stroke="#000" stroke-linecap="round" stroke-linejoin="round" stroke-width="8"/>
    <path id="Pfad_112" data-name="Pfad 112" d="M339.619,326.012h12.766a7.688,7.688,0,0,0,7.756-9.166l-10.169-66.311a11.121,11.121,0,0,0-10.568-9.171H326.638a7.611,7.611,0,0,0-7.568,5.562" transform="translate(-55.647 -81.69)" fill="none" stroke="#000" stroke-linecap="round" stroke-linejoin="round" stroke-width="8"/>
    <path id="Pfad_113" data-name="Pfad 113" d="M319.91,256.432a9.33,9.33,0,0,0-9.324,9.329" transform="translate(-84.317 -30.767)" fill="none" stroke="#000" stroke-linecap="round" stroke-linejoin="round" stroke-width="8"/>
    <path id="Pfad_114" data-name="Pfad 114" d="M353.816,242.634s-3.228,28.756-35.492,28.756c0,0-9.534-.4-9.534,11.558" transform="translate(-90.391 -77.398)" fill="none" stroke="#000" stroke-linecap="round" stroke-linejoin="round" stroke-width="8"/>
    <path id="Pfad_115" data-name="Pfad 115" d="M363.541,245.836s-7.253,26.291-52.419,26.291" transform="translate(-82.504 -66.576)" fill="none" stroke="#000" stroke-linecap="round" stroke-linejoin="round" stroke-width="8"/>
    <line id="Linie_27" data-name="Linie 27" y2="139.746" transform="translate(93.769 159.673)" fill="none" stroke="#000" stroke-linecap="round" stroke-linejoin="round" stroke-width="8"/>
    <line id="Linie_28" data-name="Linie 28" x1="23.186" transform="translate(94.285 244.323)" fill="none" stroke="#000" stroke-linecap="round" stroke-linejoin="round" stroke-width="8"/>
    <line id="Linie_29" data-name="Linie 29" x1="111.517" transform="translate(205.287 299.419)" fill="none" stroke="#000" stroke-linecap="round" stroke-linejoin="round" stroke-width="8"/>
    <line id="Linie_30" data-name="Linie 30" y2="139.746" transform="translate(316.802 159.673)" fill="none" stroke="#000" stroke-linecap="round" stroke-linejoin="round" stroke-width="8"/>
    <line id="Linie_31" data-name="Linie 31" x2="23.186" transform="translate(293.101 244.323)" fill="none" stroke="#000" stroke-linecap="round" stroke-linejoin="round" stroke-width="8"/>
  </g>
</svg>
