<svg xmlns="http://www.w3.org/2000/svg" width="343.932" height="332.946" viewBox="0 0 343.932 332.946">
  <g id="Popup_08" transform="translate(-27.142 -26.675)">
    <path id="Pfad_2" data-name="Pfad 2" d="M37.912,31.763H381.844V364.709H37.912Z" transform="translate(-10.77 -5.088)" fill="#bdbdbd"/>
    <g id="Gruppe_55" data-name="Gruppe 55" transform="translate(133.16 52.522)">
      <g id="Gruppe_46" data-name="Gruppe 46">
        <path id="Pfad_79" data-name="Pfad 79" d="M102.172,17.388,14.01,107.257C13.227,108.04,103.8,15.764,102.172,17.388ZM59.308,0A59.479,59.479,0,0,0,21.853,13.3c-1.611,1.324-3.134,2.706-4.516,4.088a9.581,9.581,0,0,0-.7.745C-5.1,40.927-5.346,84.756,14.793,107.816l91.923-86.641C95.918,11.764,85.5-.1,59.308,0Z" transform="translate(198.02 198.589) rotate(180)" fill="#fff"/>
        <g id="Gruppe_40" data-name="Gruppe 40">
          <g id="Gruppe_39" data-name="Gruppe 39">
            <path id="Pfad_67" data-name="Pfad 67" d="M462.424,551.128H360.815a16.67,16.67,0,0,1-16.65-16.65V359.65A16.67,16.67,0,0,1,360.815,343H462.424a16.667,16.667,0,0,1,16.65,16.65v60.232a4.164,4.164,0,0,1-4.162,4.163,59.479,59.479,0,0,0-37.456,13.3c-1.611,1.324-3.134,2.706-4.516,4.088a9.6,9.6,0,0,0-.7.745,3.219,3.219,0,0,1-.271.308,58.98,58.98,0,0,0,.974,82.931,58.335,58.335,0,0,0,33.829,16.8,4.163,4.163,0,0,1,.808,8.059A15.4,15.4,0,0,1,462.424,551.128Zm-101.608-199.8a8.333,8.333,0,0,0-8.325,8.325V534.478a8.334,8.334,0,0,0,8.325,8.325h81.478a67.829,67.829,0,0,1-16.467-105.937c.362-.441.791-.882,1.228-1.319,1.569-1.569,3.293-3.13,5.124-4.641A67.869,67.869,0,0,1,470.75,415.85v-56.2a8.333,8.333,0,0,0-8.325-8.325Zm68.141,88.288Z" transform="translate(-344.165 -343)"/>
          </g>
        </g>
        <g id="Gruppe_42" data-name="Gruppe 42" transform="translate(26.777 21.595)">
          <path id="Pfad_75" data-name="Pfad 75" d="M378.911,383.331Zm0-30.145a10.91,10.91,0,1,0,10.91,10.91,10.91,10.91,0,0,0-10.91-10.91Z" transform="translate(-308.039 -349.024)" fill="#00b3ad"/>
          <path id="Pfad_76" data-name="Pfad 76" d="M378.911,383.331Zm0-30.145a10.91,10.91,0,1,0,10.91,10.91,10.91,10.91,0,0,0-10.91-10.91Z" transform="translate(-368.001 -349.024)" fill="#00b3ad"/>
          <path id="Pfad_77" data-name="Pfad 77" d="M378.911,383.331Zm0-30.145a10.91,10.91,0,1,0,10.91,10.91,10.91,10.91,0,0,0-10.91-10.91Z" transform="translate(-368.001 -284.899)" fill="#00b3ad"/>
          <path id="Pfad_69" data-name="Pfad 69" d="M382.238,386.658a19.235,19.235,0,1,1,19.235-19.235,19.235,19.235,0,0,1-19.235,19.235Zm0-30.145a10.91,10.91,0,1,0,10.91,10.91A10.91,10.91,0,0,0,382.238,356.513Z" transform="translate(-311.366 -348.188)"/>
          <path id="Pfad_78" data-name="Pfad 78" d="M378.911,383.331Zm0-30.145a10.91,10.91,0,1,0,10.91,10.91,10.91,10.91,0,0,0-10.91-10.91Z" transform="translate(-368.001 -220.774)" fill="#00b3ad"/>
        </g>
        <g id="Gruppe_43" data-name="Gruppe 43" transform="translate(18.011 85.216)">
          <path id="Pfad_70" data-name="Pfad 70" d="M367.727,401.942a19.235,19.235,0,1,1,19.235-19.235,19.235,19.235,0,0,1-19.235,19.235Zm0-30.145a10.91,10.91,0,1,0,10.91,10.91,10.91,10.91,0,0,0-10.91-10.91Z" transform="translate(-348.492 -363.472)"/>
        </g>
        <g id="Gruppe_44" data-name="Gruppe 44" transform="translate(80.63 86.954)">
          <path id="Pfad_71" data-name="Pfad 71" d="M367.7,377.711a4.163,4.163,0,0,1-3.584-6.277,18.537,18.537,0,0,1,7.563-7.089,4.163,4.163,0,0,1,4.541,6.918c-1.632,1.34-3.155,2.722-4.537,4.1a9.634,9.634,0,0,0-.7.745,4.166,4.166,0,0,1-3.283,1.6Z" transform="translate(-363.535 -363.89)"/>
        </g>
        <g id="Gruppe_45" data-name="Gruppe 45" transform="translate(18.011 148.836)">
          <path id="Pfad_72" data-name="Pfad 72" d="M367.727,417.222a19.233,19.233,0,1,1,19.235-19.233A19.233,19.233,0,0,1,367.727,417.222Zm0-30.141a10.908,10.908,0,1,0,10.91,10.909,10.908,10.908,0,0,0-10.91-10.909Z" transform="translate(-348.492 -378.756)"/>
        </g>
        <g id="Gruppe_41" data-name="Gruppe 41" transform="translate(18.011 21.595)">
          <path id="Pfad_68" data-name="Pfad 68" d="M367.727,386.658a19.235,19.235,0,1,1,19.235-19.235,19.235,19.235,0,0,1-19.235,19.235Zm0-30.145a10.91,10.91,0,1,0,10.91,10.91A10.91,10.91,0,0,0,367.727,356.513Z" transform="translate(-348.492 -348.188)"/>
        </g>
      </g>
      <g id="Gruppe_49" data-name="Gruppe 49" transform="translate(62.902 68.93)">
        <g id="Gruppe_47" data-name="Gruppe 47" transform="translate(18.768 22.397)">
          <path id="Pfad_73" data-name="Pfad 73" d="M413.045,481.729a68.918,68.918,0,0,1-9.449-.654A66.554,66.554,0,0,1,365,461.911a4.16,4.16,0,0,1,0-5.882l89.828-89.87a4.169,4.169,0,0,1,2.943-1.22h0a4.176,4.176,0,0,1,2.943,1.22,70.26,70.26,0,0,1,6.81,7.917,67.823,67.823,0,0,1-6.81,87.838,65.292,65.292,0,0,1-7.105,6.173,66.93,66.93,0,0,1-40.564,13.642ZM373.929,458.88a59.484,59.484,0,0,0,74.677,2.56,57.415,57.415,0,0,0,6.227-5.411,59.066,59.066,0,0,0,16.063-29.6v-.013a59.177,59.177,0,0,0-10.069-47.4c-1.007-1.357-2.061-2.668-3.155-3.921Z" transform="translate(-363.785 -364.94)"/>
        </g>
        <g id="Gruppe_48" data-name="Gruppe 48">
          <path id="Pfad_79-2" data-name="Pfad 79" d="M467.346,381.706C370.229,475.451,468.97,380.083,467.346,381.706Zm-43.525-14.512c-13.616,0-26.259,1.845-36.794,10.424-1.611,1.324-3.134,2.706-4.516,4.088a9.582,9.582,0,0,0-.7.745c-12.151,12.742-19.387,31.854-18.492,50.756.664,14.071,6.11,32.149,17.286,41.462l88.9-80.817,3.861-3.322c-16.91-18.551-35.084-23.335-49.545-23.335Z" transform="translate(-351.64 -367.195)" fill="#fff"/>
          <path id="Pfad_74" data-name="Pfad 74" d="M382.207,477.271a4.158,4.158,0,0,1-2.943-1.22,67.247,67.247,0,0,1-1.107-94.561,12.832,12.832,0,0,1,1.107-1.195c1.569-1.569,3.292-3.13,5.124-4.641a67.863,67.863,0,0,1,42.733-15.185c18.078,0,37.751,9.866,50.534,22.653,1.628,1.628-1.05,1.435-2.673,3.059L385.154,476.05a4.168,4.168,0,0,1-2.947,1.221ZM427.121,368.8a59.479,59.479,0,0,0-37.455,13.3c-1.611,1.324-3.134,2.706-4.516,4.088a9.588,9.588,0,0,0-.7.745c-21.737,22.794-22.278,57.135-2.14,80.2l83.743-83.78A58.9,58.9,0,0,0,427.121,368.8Z" transform="translate(-359.276 -356.68)"/>
        </g>
      </g>
    </g>
    <g id="Gruppe_56" data-name="Gruppe 56" transform="translate(73.039 197.697)">
      <g id="Gruppe_53" data-name="Gruppe 53">
        <path id="Pfad_80" data-name="Pfad 80" d="M230.687,224.587l-50.487-87.3a16.7,16.7,0,0,0-28.583,0L101.16,222.558l-.053.091a15.8,15.8,0,0,0,2.673,19.073,16.609,16.609,0,0,0,11.439,4.813h101.36a16.621,16.621,0,0,0,11.461-4.81,15.807,15.807,0,0,0,4.736-11.288Z" transform="translate(-91.086 -129.227)" fill="#fff"/>
        <g id="Gruppe_51" data-name="Gruppe 51" transform="translate(0 3.373)">
          <path id="Pfad_81" data-name="Pfad 81" d="M194.559,269.125H128.84a14.232,14.232,0,0,1-12.183-21.114l.023-.041,55.3-95.778a14.224,14.224,0,0,1,24.658,0l55.32,95.792.011.019a14.234,14.234,0,0,1-12.192,21.123C239.748,269.125,239.707,269.125,194.559,269.125Zm-65.635-5.075H239.707a9.157,9.157,0,0,0,7.84-13.571l-55.3-95.752a9.151,9.151,0,0,0-15.872,0l-55.292,95.756a9.158,9.158,0,0,0,7.837,13.566Z" transform="translate(-114.881 -145.06)" stroke="#000" stroke-width="1"/>
        </g>
        <g id="Gruppe_52" data-name="Gruppe 52" transform="translate(62.793 33.057)">
          <path id="Pfad_82" data-name="Pfad 82" d="M380.27,522.371a8.6,8.6,0,1,1-8.6-8.6A8.6,8.6,0,0,1,380.27,522.371Z" transform="translate(-363.071 -455.463)" fill="#00c5c4"/>
          <path id="Pfad_83" data-name="Pfad 83" d="M378.086,305.543a5.7,5.7,0,0,1-11.39,0L364,265.566a8.388,8.388,0,1,1,16.776,0Z" transform="translate(-363.791 -257.178)" fill="#00c5c4"/>
        </g>
      </g>
      <path id="Pfad_84" data-name="Pfad 84" d="M318.834,907.913H294.641V928.5h25.4v25.558h21.233V927.792h23.843V908.624H341.275V885.55h-22.44Z" transform="translate(-197.725 -813.869)" fill="#00c5c4" stroke="#00c4c4" stroke-linecap="round" stroke-linejoin="round" stroke-width="4"/>
      <path id="Pfad_85" data-name="Pfad 85" d="M318.5,907.335H294.64v20.056h25.051v24.9h20.94V926.7h23.514V908.027H340.631V885.55H318.5Z" transform="translate(-195.804 -811.947)" fill="none" stroke="#010000" stroke-linecap="round" stroke-linejoin="round" stroke-width="3"/>
    </g>
  </g>
</svg>
