<svg xmlns="http://www.w3.org/2000/svg" width="350.738" height="300.056" viewBox="0 0 350.738 300.056">
  <g id="Popup_03" transform="translate(-24.026 -23.286)">
    <path id="Pfad_2" data-name="Pfad 2" d="M37.912,31.763H388.65V331.819H37.912Z" transform="translate(-13.886 -8.477)" fill="#bdbdbd"/>
    <g id="Gruppe_8" data-name="Gruppe 8" transform="translate(126.233 70.326)">
      <path id="Pfad_41" data-name="Pfad 41" d="M-136.813,335.7c.949,7.524-4.055,10.42-9.827,12.863-4.813,2.036-6.549,4.216-2.132,9.258,23.51,26.818,36.54,57.86,36.574,93.931,0,3.933.846,7.869,1.3,11.8-3,5.645-8.762,5.749-13.818,6.055-27.973,1.7-55.554-.279-81.98-10.619-5.2-2.036-9.2-2.631-14.515,1.286-10.217,7.534-26.118-.161-26.482-12.917-.311-10.894-3.133-20.5-7.319-30.409-5.374-12.725-4.877-25.924,2.93-38.021A39.535,39.535,0,0,0-246,359.31c.794-12.8,5.217-17.292,18.2-18.892,4.272-.525,7.335-2.659,10.387-5.251a72.048,72.048,0,0,1,23.108-13.293c10.5-3.641,20.658-4.624,28.984,5.239,3.394,4.019,7.8,5.347,13.348,3.686C-146.163,329.056-139.99,328.3-136.813,335.7Z" transform="translate(267.064 -299.417)" fill="#00b4ae"/>
      <g id="Pfad_42" data-name="Pfad 42" transform="translate(261.541 -309.699)">
        <path id="Path_148" data-name="Path 148" d="M-140.92,485.164a174.152,174.152,0,0,1-20.382-1.2,176.261,176.261,0,0,1-19.972-3.55,185.9,185.9,0,0,1-19.58-5.826c-6.129-2.194-12.317-4.766-18.4-7.65,2.014-1.124,4.013-3.3,5.163-7.409a3.281,3.281,0,0,1,.487-1.137,7.31,7.31,0,0,1,1.668.758,14.869,14.869,0,0,0,1.386.7c22.462,9.446,46.891,14.038,74.684,14.038,3.56,0,7.233-.078,10.918-.23,5.525-.229,11.9-.776,18.091-2.967,1.1,5.132,1.6,8.412.581,9.856-1.191,1.689-5.632,2.364-12.27,3.2A179.658,179.658,0,0,1-140.92,485.164Zm-93.023-7.731a12.444,12.444,0,0,1-5.6-1.578,35.766,35.766,0,0,1-7.076-5.092c-2.426-2.158-2.551-4.27-1.915-7.909,1.971-11.257.5-20.611-4.758-30.33a53.466,53.466,0,0,1-4.908-12.383,43.88,43.88,0,0,1-1.311-12.377,46.025,46.025,0,0,1,2.294-12.5,60.582,60.582,0,0,1,6-12.741c7.864-12.832,5.852-28.427,3.22-40.58-.695-3.206-1.34-6.489-1.964-9.663-.262-1.33-.531-2.7-.8-4.058.458-4.711,1.49-8.213,3.068-10.413a6.929,6.929,0,0,1,6.1-3.01,18.791,18.791,0,0,1,6.077,1.223,53.417,53.417,0,0,1,3.418,11.1c.86,4.178,1.413,8.523,2,13.123q.164,1.3.334,2.612l.459,3.543,2.78-2.243c2-1.615,3.944-3.206,5.822-4.745,4.152-3.4,8.073-6.617,12.129-9.673,7.357-5.544,14.7-8.986,22.448-10.524a28.261,28.261,0,0,1,5.476-.552A18.576,18.576,0,0,1-173.6,319.9a8.773,8.773,0,0,1,4.468,3.771,21,21,0,0,0,4.183,5.442,22.263,22.263,0,0,0-11.79-3.035,38.609,38.609,0,0,0-8.96,1.153c-7.679,1.847-15.054,5.475-23.912,11.764-1.165.827-2.28,1.7-3.358,2.535a41.518,41.518,0,0,1-6.3,4.33,15.271,15.271,0,0,1-7.262,1.805,18.7,18.7,0,0,1-2.447-.166,9.482,9.482,0,0,0-1.246-.082c-6.916,0-11.741,7.482-11.745,14.2a45.212,45.212,0,0,1-2.213,14.063,62.141,62.141,0,0,1-6.254,13.216c-7.073,11.618-6.443,25.3,1.774,38.518,4.805,7.729,6.188,14.391,4.486,21.6-1.148,4.859-.345,8.6,2.457,11.448,2.324,2.36,5.609,3.652,8.787,4.9,1.029.4,2,.787,2.934,1.2a15.608,15.608,0,0,0,6.258,1.5c.227,0,.468-.008.722-.027a24.69,24.69,0,0,1-5.284,7.117A8.5,8.5,0,0,1-233.943,477.433Zm81.2-139.287c-2.331,0-4.194-.581-6.28-3.475a21.215,21.215,0,0,0-3.344-3.678,16.057,16.057,0,0,0,8.168,2h0a53.089,53.089,0,0,0,8.725-1l.526-.089a19.715,19.715,0,0,1,3.247-.3c2.555,0,4.418.635,5.7,1.94a7.95,7.95,0,0,1,1.949,4.1,12.718,12.718,0,0,0-5.431-1.126,33.963,33.963,0,0,0-6.185.762c-1.166.217-2.267.423-3.354.553A32.989,32.989,0,0,1-152.744,338.146Z" fill="#f9f9f9"/>
        <path id="Path_149" data-name="Path 149" d="M-241.6,316.8a4.954,4.954,0,0,0-4.477,2.176c-1.34,1.868-2.238,4.944-2.673,9.148.252,1.263.5,2.535.745,3.771.622,3.165,1.266,6.438,1.957,9.626a96.578,96.578,0,0,1,2.35,17.064c1.132-6.414,5.736-12.426,12.249-13.1l-.307-2.371q-.171-1.318-.336-2.618c-1.083-8.523-2.03-15.963-4.914-22.859a15.607,15.607,0,0,0-4.594-.835m60.942,3.86a26.232,26.232,0,0,0-5.088.514c-7.446,1.478-14.523,4.8-21.633,10.159-4.023,3.032-7.93,6.233-12.065,9.622-1.839,1.507-3.739,3.064-5.7,4.646a13.515,13.515,0,0,0,4.956-1.515,40.138,40.138,0,0,0,5.985-4.13c1.1-.854,2.229-1.737,3.43-2.589,9.076-6.443,16.664-10.168,24.6-12.078a40.637,40.637,0,0,1,9.427-1.208,27.6,27.6,0,0,1,5.885.611l-.026-.046a6.834,6.834,0,0,0-3.491-2.9,16.582,16.582,0,0,0-6.285-1.088m38.952,12.952a17.771,17.771,0,0,0-2.914.269l-.524.089a55.416,55.416,0,0,1-9.061,1.026q-1.021,0-1.99-.082a4.731,4.731,0,0,0,1.117.795,5.088,5.088,0,0,0,2.329.44,31.07,31.07,0,0,0,3.479-.294c1.022-.123,2.093-.322,3.226-.533a35.436,35.436,0,0,1,6.551-.8q.849,0,1.658.078a6.328,6.328,0,0,0-3.871-.992m-115.487,70.466q-.249,1.891-.321,3.767a41.865,41.865,0,0,0,1.252,11.813,51.5,51.5,0,0,0,4.726,11.917,46.576,46.576,0,0,1,5.481,16.691,22.006,22.006,0,0,0,.049-9.768,32.406,32.406,0,0,0-4.353-10.028c-4.975-8-7.265-16.388-6.834-24.392m11.33,53.568q-.205,2.723-.7,5.555c-.6,3.435-.35,4.626,1.274,6.071,4.6,4.09,8.416,6.164,11.345,6.164a6.5,6.5,0,0,0,4.346-1.8,18.051,18.051,0,0,0,3.22-3.827,20.139,20.139,0,0,1-4.427-1.419c-.894-.4-1.847-.771-2.855-1.168-4.059-1.6-10.039-3.947-12.2-9.581m33.364,3.483a14.958,14.958,0,0,1-2.99,5.359c5.081,2.311,10.213,4.4,15.3,6.22a183.99,183.99,0,0,0,19.368,5.763,174.334,174.334,0,0,0,19.745,3.51,172.109,172.109,0,0,0,20.147,1.186,177.592,177.592,0,0,0,22.12-1.4,72.3,72.3,0,0,0,8.664-1.413c1.886-.5,2.208-.936,2.221-.955s.293-.439.135-2.285a37.78,37.78,0,0,0-.59-3.826,67.541,67.541,0,0,1-16.5,2.373c-3.712.154-7.413.232-11,.232-28.065,0-52.747-4.643-75.46-14.2-.41-.172-.8-.373-1.164-.568M-241.6,312.8a21.685,21.685,0,0,1,7.551,1.633c4.023,8.624,4.934,17.942,6.259,28.164,6.377-5.144,12.053-9.974,18-14.458a56.948,56.948,0,0,1,23.263-10.888c7.406-1.47,15.888-.391,19.138,5.451,5.7,10.233,13.369,8.707,22.1,7.235,9.525-1.606,13.723,2.812,13.53,11.831-5.1-5.337-11.237-2.637-17.039-1.941-4.707.564-8.295.959-11.857-3.983-5.857-8.13-15.152-8.933-24.582-6.666-8.609,2.071-16.133,6.418-23.222,11.45-6.231,4.422-11.052,10.142-20.784,8.857-5.945-.786-10.725,5.671-10.729,12.134-.008,10.452-3.232,19.243-8.759,28.318-7.166,11.77-5.336,25,1.765,36.421,4.691,7.546,6.694,14.813,4.733,23.119-2.55,10.791,6.334,12.285,13.043,15.262,6.241,2.771,11.163,1.387,13.16-5.746,1.3-4.627,4.175-1.853,6.243-.982,23.732,9.98,48.484,13.881,73.908,13.881q5.4,0,10.835-.228c6.739-.279,13.373-1.018,19.63-3.679,3.305,14.964,2.985,15.75-12.9,17.75-36.012,4.535-70.154-1.821-102.62-17.371-6.948,13.439-15.071,14.528-27.025,3.9-3.3-2.936-3.2-6.054-2.556-9.748,1.775-10.14.743-19.262-4.547-29.034-9.246-17.074-8.684-34.364,2.125-52,7.1-11.588,5.862-25.757,2.971-39.111-1.012-4.666-1.893-9.36-2.832-14.041C-251.829,317.871-248.237,312.8-241.6,312.8Z" fill="#fff"/>
      </g>
      <path id="Pfad_44" data-name="Pfad 44" d="M-254.342,331.979l-5.317-.022c-1.851-9.3,2.054-15.966,10.1-19.969,5.83-2.9,12.21-4.96,17.079,2.16l-3.43,3.756C-245.772,317.721-250.8,323.875-254.342,331.979Z" transform="translate(265.543 -309.311)"/>
    </g>
    <path id="Pfad_43" data-name="Pfad 43" d="M-228.078,311.749c5.3,5.112,4.284,12.638,7.646,19.049,6.013-4.007,12-8.555,18.5-12.216,18.313-10.325,28.978-9.081,44.383,5.259,2.795,2.6,5.313,1.917,8.147,1.708,9.63-.713,19.583-2.624,23.542,10.18,3.4,11,.613,18.257-11.093,26.623,15.884,19.786,28.644,41.226,33.54,66.5,3.332,17.2,2.627,34.912,6.507,52.134,1.429,6.342-4.055,10.018-9.849,11.808-13.173,4.069-26.759,4.353-40.318,3.475-21.2-1.373-41.99-5.048-61.6-13.685-3.907-1.72-6.829-3.169-9.68,1.915-2.492,4.447-7.345,5.134-12.274,4.517-15.578-1.951-24.48-12.837-22.559-28.14a32.556,32.556,0,0,0-3.543-19.871c-10.162-20.052-11.111-40.063,1.234-60.341,5.3-8.709,4.859-19.609,3.356-29.888q-1.556-10.611-3.115-21.221a4.894,4.894,0,0,1,6.115-.49c8.044,20.574,9.6,40.889-1.278,61.22-7.349,13.737-7.351,28.438-.673,42.149,4.843,9.945,7.4,19.76,6.175,30.552-.924,8.1,3.253,12.291,10.154,14.9,4.445,1.682,8.575,2.034,11.163-2.825,3.523-6.62,8.32-4.867,13.48-2.536,24.563,11.1,50.474,15.474,77.27,15.434a74.977,74.977,0,0,0,15.759-1.724c10.574-2.283,10.938-2.783,9.911-14.009-2.711-9.318-2.418-19.067-3.006-28.532-1.748-28.174-14.742-51.123-31.215-72.68-7.775-10.174-8-11.049,1.893-18.83,2.964-2.335,5.492-4.759,5.98-8.685.117-9.262-6.374-10.152-12.893-9.16-8.551,1.3-14.79.048-20.383-7.7-4.435-6.143-12.254-7.134-19.937-4.964-9.783,2.765-17.753,8.525-25.5,14.788-13.165,10.639-15.2,9.925-17.8-6.394-.733-4.576-2.484-8.914-2.84-13.557C-232.539,313.665-231.468,311.532-228.078,311.749Z" transform="translate(387.375 -236.585)"/>
  </g>
</svg>
