<svg xmlns="http://www.w3.org/2000/svg" width="340.754" height="358.171" viewBox="0 0 340.754 358.171">
  <g id="Popup_09" transform="translate(-30.32 -26.675)">
    <path id="Pfad_2" data-name="Pfad 2" d="M37.912,31.763H377.681l.985,358.171H37.912Z" transform="translate(-7.592 -5.088)" fill="#bdbdbd"/>
    <path id="Pfad_90" data-name="Pfad 90" d="M490.583,503.9a60.217,60.217,0,0,1-36.064-12.18c-27.611-20.343-44.9-52.075-45.12-102.826-.115-29.273,12.368-44.722,22.868-52.522,10.845-8.048,24.638-12.078,41.253-12.078a130.8,130.8,0,0,1,24.868,2.592,76.078,76.078,0,0,0,28.251-.278,131.9,131.9,0,0,1,23.678-2.314c13.619,0,27.061,2.628,38.39,9.818,12.005,7.613,26.276,23.3,26.149,54.781-.217,50.751-17.509,82.483-45.108,102.826a60.353,60.353,0,0,1-36.07,12.18,61.953,61.953,0,0,1-18.107-2.755,11.864,11.864,0,0,0-3.438-.5,12.024,12.024,0,0,0-3.462.5,61.8,61.8,0,0,1-18.088,2.756Z" transform="translate(-319.303 -182.465)" fill="#fff"/>
    <path id="Pfad_86" data-name="Pfad 86" d="M432.245,423.711c26.1-12.869,42.6-43.646,42.788-89.274" transform="translate(-194.135 -123.359)" fill="none" stroke="#000" stroke-width="8"/>
    <path id="Pfad_89" data-name="Pfad 89" d="M482.736,347.2c-11.878-45.35-66.835-29.847-66.835-29.847s5.5,43.864,64.545,40.408" transform="translate(-276.539 -222.387)" fill="#00b4ae" stroke="#000" stroke-width="8"/>
    <path id="Pfad_88" data-name="Pfad 88" d="M426.2,377.274s-1.063-61.179,39.375-62.231" transform="translate(-224.625 -221.141)" fill="none" stroke="#000" stroke-width="8"/>
    <path id="Pfad_87" data-name="Pfad 87" d="M490.583,503.9a60.217,60.217,0,0,1-36.064-12.18c-27.611-20.343-44.9-52.075-45.12-102.826-.115-29.273,12.368-44.722,22.868-52.522,10.845-8.048,24.638-12.078,41.253-12.078a130.8,130.8,0,0,1,24.868,2.592,76.078,76.078,0,0,0,28.251-.278,131.9,131.9,0,0,1,23.678-2.314c13.619,0,27.061,2.628,38.39,9.818,12.005,7.613,26.276,23.3,26.149,54.781-.217,50.751-17.509,82.483-45.108,102.826a60.353,60.353,0,0,1-36.07,12.18,61.953,61.953,0,0,1-18.107-2.755,11.864,11.864,0,0,0-3.438-.5,12.024,12.024,0,0,0-3.462.5,61.8,61.8,0,0,1-18.088,2.756Z" transform="translate(-309.326 -174.483)" fill="none" stroke="#000" stroke-width="8"/>
  </g>
</svg>
