<svg xmlns="http://www.w3.org/2000/svg" width="346.016" height="358.171" viewBox="0 0 346.016 358.171">
  <g id="Popup_01" transform="translate(-23.058 -29.959)">
    <path id="Pfad_2" data-name="Pfad 2" d="M37.912,31.763H383.928V389.934H37.912Z" transform="translate(-14.854 -1.804)" fill="#bdbdbd"/>
    <g id="Gruppe_144" data-name="Gruppe 144" transform="translate(81.547 88.149)">
      <path id="Pfad_37" data-name="Pfad 37" d="M320.875,311.566H320.8c-23.93.03-57.309,15.139-57.309,39.672v11.02c0,5.975,8.076,11.02,17.633,11.02,7.033,0,12.694-1.55,15.536-4.253,3.362-3.2,5.5-4.563,12.217-4.563h5.308c6.079,0,11.021-3.956,11.021-8.816,0-6.406,6.147-11.382,12.656-16.651,3.508-2.841,9.384-7.6,9.384-9.8a14.488,14.488,0,0,0-4.188-10.809C338.645,313.989,330.772,311.566,320.875,311.566Z" transform="translate(-261.5 -256.681)" fill="#fff" stroke="#fff" stroke-width="4"/>
      <path id="Pfad_38" data-name="Pfad 38" d="M450.879,364.462c6.733,0,8.876,1.369,12.161,4.494,2.914,2.773,8.575,4.322,15.609,4.322,9.557,0,17.632-5.045,17.632-11.02v-11.02c0-24.533-33.379-39.642-57.309-39.672h-.078c-9.9,0-17.77,2.423-22.178,6.822a14.488,14.488,0,0,0-4.188,10.809c0,2.2,5.876,6.957,9.384,9.8,6.509,5.269,12.656,10.245,12.656,16.651,0,4.859,4.942,8.816,11.02,8.816h5.29Z" transform="translate(-262.51 -256.681)" fill="#fff" stroke="#fff" stroke-width="4"/>
      <path id="Pfad_8" data-name="Pfad 8" d="M292.47,363.786a8.816,8.816,0,1,1,8.817-8.817A8.816,8.816,0,0,1,292.47,363.786Zm0-8.825Z" transform="translate(-261.613 -257.993)" fill="#00b4ae"/>
      <path id="Pfad_9" data-name="Pfad 9" d="M326.124,336.538h-8.816v8.816h8.816Z" transform="translate(-264.411 -257.194)" fill="#00b4ae"/>
      <path id="Pfad_10" data-name="Pfad 10" d="M321.316,355.769H312.5v8.816h8.816Z" transform="translate(-264.011 -258.792)" fill="#00b4ae"/>
      <path id="Pfad_11" data-name="Pfad 11" d="M345.354,331.731h-8.816v8.816h8.816Z" transform="translate(-266.009 -256.794)" fill="#00b4ae"/>
      <rect id="Rechteck_2" data-name="Rechteck 2" width="8.816" height="39.672" transform="translate(17.633 149.873)" fill="#00b4ae"/>
      <rect id="Rechteck_3" data-name="Rechteck 3" width="8.816" height="8.816" transform="translate(17.633 198.362)" fill="#00b4ae"/>
      <path id="Pfad_12" data-name="Pfad 12" d="M484.778,373.4a8.816,8.816,0,1,1,8.816-8.816,8.816,8.816,0,0,1-8.816,8.816Zm0-8.816Z" transform="translate(-277.598 -258.792)" fill="#00c5c4"/>
      <path id="Pfad_13" data-name="Pfad 13" d="M451.124,349.363a8.816,8.816,0,1,1,8.817-8.817A8.816,8.816,0,0,1,451.124,349.363Zm0-8.817Z" transform="translate(-274.801 -256.794)" fill="#00c5c4"/>
      <path id="Pfad_14" data-name="Pfad 14" d="M416.955,319.769c-8.618-3.68-17.916-12.406-17.916-20.081V264.423h8.816v35.265c0,2.6,5.394,8.91,12.561,11.971Z" transform="translate(-271.204 -251.199)" fill="#0a0a0a"/>
      <rect id="Rechteck_4" data-name="Rechteck 4" width="13.224" height="8.816" transform="translate(119.018 39.672)" fill="#0a0a0a"/>
      <rect id="Rechteck_5" data-name="Rechteck 5" width="13.224" height="8.816" transform="translate(119.018 22.04)"/>
      <path id="Pfad_15" data-name="Pfad 15" d="M354.97,500h-8.816v8.816h8.816Z" transform="translate(-266.808 -270.782)" fill="#00b4ae"/>
      <path id="Pfad_16" data-name="Pfad 16" d="M374.2,509.615h-8.816v8.816H374.2v-8.816Z" transform="translate(-268.407 -271.581)" fill="#00b4ae"/>
      <path id="Pfad_17" data-name="Pfad 17" d="M393.431,514.423h-8.816v8.816h8.816Z" transform="translate(-270.005 -271.981)" fill="#00b4ae"/>
      <path id="Pfad_18" data-name="Pfad 18" d="M431.893,500h-8.816v8.816h8.816Z" transform="translate(-273.202 -270.782)" fill="#00b4ae"/>
      <path id="Pfad_19" data-name="Pfad 19" d="M412.662,509.615h-8.816v8.816h8.816v-8.816Z" transform="translate(-271.604 -271.581)" fill="#00b4ae"/>
      <path id="Pfad_20" data-name="Pfad 20" d="M350.162,254.808h-8.816v8.816h8.816Z" transform="translate(-266.409 -250.4)" fill="#00b4ae"/>
      <path id="Pfad_21" data-name="Pfad 21" d="M278.047,302.885h-8.816V311.7h8.816v-8.816Z" transform="translate(-260.414 -254.396)" fill="#00b4ae"/>
      <path id="Pfad_22" data-name="Pfad 22" d="M292.47,264.423h-8.816v8.816h8.816Z" transform="translate(-261.613 -251.199)" fill="#00b4ae"/>
      <path id="Pfad_23" data-name="Pfad 23" d="M311.7,254.808h-8.816v8.816H311.7Z" transform="translate(-263.212 -250.4)" fill="#00b4ae"/>
      <path id="Pfad_24" data-name="Pfad 24" d="M282.855,283.654h-8.816v8.816h8.816Z" transform="translate(-260.814 -252.798)" fill="#00b4ae"/>
      <path id="Pfad_25" data-name="Pfad 25" d="M330.932,250h-8.816v8.816h8.816Z" transform="translate(-264.81 -250)" fill="#00b4ae"/>
      <path id="Pfad_26" data-name="Pfad 26" d="M513.624,302.885h-8.816V311.7h8.816v-8.816Z" transform="translate(-279.996 -254.396)" fill="#00b4ae"/>
      <path id="Pfad_27" data-name="Pfad 27" d="M479.97,269.231h-8.816v8.816h8.816Z" transform="translate(-277.199 -251.599)" fill="#00b4ae"/>
      <path id="Pfad_28" data-name="Pfad 28" d="M455.931,278.846h-8.816v8.816h8.816Z" transform="translate(-275.201 -252.398)" fill="#00b4ae"/>
      <path id="Pfad_29" data-name="Pfad 29" d="M504.008,278.846h-8.816v8.816h8.816Z" transform="translate(-279.197 -252.398)" fill="#00b4ae"/>
      <path id="Pfad_30" data-name="Pfad 30" d="M359.953,319.769l-3.461-8.111c7.168-3.06,12.561-9.371,12.561-11.971V264.423h8.817v35.265C377.87,307.363,368.572,316.089,359.953,319.769Z" transform="translate(-267.668 -251.199)"/>
      <path id="Pfad_31" data-name="Pfad 31" d="M286.064,387.037c-14.831,0-26.449-8.713-26.449-19.836v-11.02c0-31.166,39.092-48.454,66.117-48.489h.091c12.423,0,22.243,3.25,28.4,9.4A23.5,23.5,0,0,1,361,334.14c0,6.406-6.147,11.382-12.656,16.651-3.508,2.84-9.384,7.6-9.384,9.8,0,9.724-8.9,17.631-19.837,17.631H313.85c-3.943.129-4.089.151-6.07,2.036C303.149,384.665,295.469,387.037,286.064,387.037Zm39.754-70.529h-.077c-23.93.03-57.309,15.139-57.309,39.672V367.2c0,5.975,8.076,11.02,17.633,11.02,7.033,0,12.694-1.55,15.536-4.252,3.362-3.2,5.5-4.563,12.216-4.563h5.308c6.079,0,11.021-3.956,11.021-8.816,0-6.406,6.147-11.382,12.656-16.651,3.508-2.841,9.384-7.6,9.384-9.8A14.488,14.488,0,0,0,348,323.331c-4.412-4.4-12.285-6.822-22.182-6.822Z" transform="translate(-259.615 -254.796)"/>
      <path id="Pfad_32" data-name="Pfad 32" d="M474.775,490.82c-38.2,0-66.121-40.59-66.121-61.713V336.538h8.816v92.569c0,15.777,24.2,52.9,57.3,52.9,12.066,0,26.448-4.343,26.448-25.036V369.6h8.817v87.369C510.039,478.164,496.858,490.82,474.775,490.82Z" transform="translate(-272.004 -257.194)"/>
      <path id="Pfad_33" data-name="Pfad 33" d="M483.591,387.037c-9.406,0-17.086-2.372-21.615-6.681-2.062-1.963-2.243-2.135-6.087-2.135H450.53c-10.938,0-19.837-7.907-19.837-17.631,0-2.2-5.875-6.957-9.384-9.8-6.509-5.269-12.656-10.245-12.656-16.651a23.5,23.5,0,0,1,6.776-17.047c6.16-6.151,15.979-9.4,28.4-9.4h.09c27.025.035,66.117,17.323,66.117,48.489V367.2C510.039,378.324,498.421,387.037,483.591,387.037ZM455.821,369.4c6.733,0,8.876,1.369,12.161,4.494,2.914,2.773,8.575,4.322,15.609,4.322,9.557,0,17.632-5.045,17.632-11.02v-11.02c0-24.533-33.379-39.642-57.309-39.672h-.078c-9.9,0-17.77,2.423-22.178,6.822a14.488,14.488,0,0,0-4.188,10.809c0,2.2,5.876,6.957,9.384,9.8,6.509,5.269,12.657,10.245,12.657,16.651,0,4.859,4.942,8.816,11.02,8.816h5.29Z" transform="translate(-272.004 -254.796)"/>
      <path id="Pfad_34" data-name="Pfad 34" d="M476.373,481.581c-29.44,0-48.488-32.746-48.488-44.081H436.7c0,6.822,15.833,35.265,39.672,35.265Z" transform="translate(-273.602 -265.586)"/>
      <path id="Pfad_35" data-name="Pfad 35" d="M290.472,490.82c-20.473,0-30.857-11.39-30.857-33.853V369.6h8.817v87.369c0,17.783,6.384,25.036,22.04,25.036,32.514,0,61.713-35.927,61.713-52.9V336.538H361v92.569C361,449.96,329.068,490.82,290.472,490.82Z" transform="translate(-259.615 -257.194)"/>
      <path id="Pfad_36" data-name="Pfad 36" d="M409.466,353.024c-4.22,0-11.628-5.73-22.041-17.047-10.413,11.317-17.821,17.047-22.04,17.047v-8.816c2.329-.744,11.7-9.785,18.738-17.736l3.3-3.728,3.3,3.728c7.038,7.951,16.414,16.992,19.152,17.779Z" transform="translate(-268.407 -256.047)"/>
    </g>
  </g>
</svg>
