<svg xmlns="http://www.w3.org/2000/svg" width="349.016" height="358.171" viewBox="0 0 349.016 358.171">
  <g id="Popup_13" transform="translate(-25.058 -26.675)">
    <path id="Pfad_2" data-name="Pfad 2" d="M37.912,31.763H386.928V389.934H37.912Z" transform="translate(-12.854 -5.088)" fill="#bdbdbd"/>
    <g id="Gruppe_63" data-name="Gruppe 63" transform="translate(119.248 124.494)">
      <path id="Pfad_129" data-name="Pfad 129" d="M258.389,492C298.112,492.14,218.926,492.495,258.389,492Zm0,7.53c-35.929.449-63.6,27.889-64.512,63.707a73.515,73.515,0,0,0,10.467,35.115L258.39,692.9l54.046-94.553C319,587.53,322.81,575.059,322.9,563.282c0-35.2-28.872-63.752-64.511-63.752Zm0,31.674a32.078,32.078,0,1,1-32.081,32.079A32.077,32.077,0,0,1,258.389,531.2ZM258.389,538.734Zm0,0" transform="translate(-193.877 -489.189)" fill="#fff"/>
      <path id="Pfad_126" data-name="Pfad 126" d="M263.241,492a71.949,71.949,0,0,1,72.041,71.311c-.1,13.219-4.311,27.006-11.557,38.948l-57.214,100.1a3.766,3.766,0,0,1-6.54,0L202.707,602.174a80.032,80.032,0,0,1-11.508-38.8c.172-40.022,32.578-70.882,72.042-71.377Zm0,7.53c-35.929.449-63.6,27.889-64.512,63.707A73.514,73.514,0,0,0,209.2,598.352L263.246,692.9l54.046-94.553c6.567-10.822,10.375-23.293,10.466-35.07,0-35.2-28.872-63.752-64.511-63.752Zm0,31.674a32.078,32.078,0,1,1-32.081,32.079A32.077,32.077,0,0,1,263.241,531.2Zm0,7.53a24.548,24.548,0,1,0,24.551,24.549,24.547,24.547,0,0,0-24.551-24.549Zm0,0" transform="translate(-190.294 -492)"/>
    </g>
    <g id="Gruppe_64" data-name="Gruppe 64" transform="translate(210.504 80.475)">
      <path id="Pfad_6" data-name="Pfad 6" d="M325.663,914.225H294.641v26.4h32.57V973.4h27.226V939.714H385.01V915.136H354.437V885.55H325.663Z" transform="translate(-294.641 -885.55)" fill="#00c5c4" stroke="#00c4c4" stroke-linecap="round" stroke-linejoin="round" stroke-width="4"/>
      <path id="Pfad_5" data-name="Pfad 5" d="M325.235,913.484H294.641V939.2h32.121v31.924h26.85V938.313h30.151V914.371H353.612V885.55H325.235Z" transform="translate(-292.177 -883.086)" fill="none" stroke="#010000" stroke-linecap="round" stroke-linejoin="round" stroke-width="8"/>
    </g>
  </g>
</svg>
